# Blender v2.80 (sub 35) OBJ File: ''
# www.blender.org
mtllib monkey1.mtl
o Cube
v -0.322032 0.408376 -0.830641
v -0.322032 0.052486 -1.155644
v 0.693165 0.408376 -0.830641
v 0.693165 0.052486 -1.155644
v -0.322032 0.408376 0.469471
v -0.322032 0.052486 1.144959
v 0.693166 0.408376 0.469471
v 0.693165 0.052486 1.144959
v -0.232918 0.223471 1.217003
v -0.232918 0.173423 1.217003
v 0.604052 0.223471 1.217003
v 0.604052 0.173423 1.217003
v 0.504044 0.603458 -0.588443
v 0.504044 0.603458 0.007407
v -0.132910 0.603458 -0.588443
v -0.132910 0.603458 0.007407
v -0.261271 0.303995 -1.251324
v -0.261271 0.147342 -1.251324
v 0.632404 0.303995 -1.251324
v 0.632404 0.147342 -1.251324
v 0.693166 0.408376 0.469471
v -0.322032 0.408376 0.469471
v 0.322247 0.430673 0.552061
v 0.048887 0.430673 0.552061
vt 0.375000 0.500000
vt 0.375000 0.750000
vt 0.375000 0.750000
vt 0.375000 0.250000
vt 0.625000 0.500000
vt 0.375000 0.500000
vt 0.625000 0.500000
vt 0.875000 0.500000
vt 0.875000 0.500000
vt 0.625000 0.750000
vt 0.375000 1.000000
vt 0.375000 0.750000
vt 0.375000 0.500000
vt 0.625000 0.500000
vt 0.375000 0.750000
vt 0.375000 0.500000
vt 0.625000 0.500000
vt 0.625000 0.500000
vt 0.625000 0.000000
vt 0.375000 0.250000
vt 0.375000 0.000000
vt 0.875000 0.750000
vt 0.875000 0.500000
vt 0.875000 0.750000
vt 0.625000 0.250000
vt 0.625000 0.500000
vt 0.625000 0.250000
vt 0.625000 0.000000
vt 0.125000 0.750000
vt 0.125000 0.500000
vt 0.625000 0.250000
vt 0.875000 0.750000
vt 0.625000 0.750000
vt 0.625000 1.000000
vt 0.625000 1.000000
vt 0.625000 0.000000
vt 0.625000 0.250000
vt 0.625000 0.250000
vt 0.875000 0.500000
vt 0.875000 0.500000
vt 0.625000 0.750000
vt 0.625000 0.750000
vt 0.375000 0.500000
vt 0.625000 0.500000
vt 0.375000 0.750000
vt 0.375000 1.000000
vt 0.625000 0.250000
vt 0.625000 0.250000
vt 0.375000 0.250000
vt 0.625000 0.000000
vn 0.0000 0.7788 -0.6273
vn 1.0000 -0.0000 0.0000
vn -0.9008 0.3842 0.2024
vn 0.0000 -1.0000 0.0000
vn 0.0000 0.9706 -0.2408
vn -1.0000 0.0000 0.0000
vn 0.0000 0.0000 1.0000
vn 0.6287 0.0000 0.7777
vn -0.0000 -0.5118 0.8591
vn 0.1137 0.9612 0.2513
vn 0.0000 1.0000 0.0000
vn -0.7180 0.6961 0.0000
vn 0.7180 0.6961 -0.0000
vn 0.0000 0.9213 0.3890
vn 0.0000 0.0000 -1.0000
vn 0.9695 0.1653 -0.1811
vn -0.8442 0.0000 -0.5361
vn 0.0000 -0.7102 -0.7040
vn 0.0000 0.9654 -0.2606
vn 0.0000 0.9547 0.2975
vn -0.6287 0.0000 0.7777
vn 0.9008 0.3842 0.2024
vn 0.8442 0.0000 -0.5361
vn -0.9695 0.1653 -0.1811
vn -0.1137 0.9612 0.2513
usemtl Material
s off
f 1/1/1 13/2/1 3/3/1
f 4/4/2 7/5/2 8/6/2
f 6/7/3 9/8/3 5/9/3
f 2/10/4 8/11/4 6/12/4
f 3/3/5 17/13/5 1/1/5
f 5/9/6 2/10/6 6/7/6
f 11/14/7 10/15/7 12/16/7
f 8/6/8 11/14/8 12/16/8
f 8/11/9 10/15/9 6/12/9
f 11/14/10 21/17/10 23/18/10
f 16/19/11 13/20/11 15/21/11
f 1/22/12 16/23/12 15/24/12
f 3/25/13 14/26/13 7/5/13
f 7/27/14 16/19/14 5/28/14
f 17/13/15 20/29/15 18/30/15
f 4/4/16 19/31/16 3/25/16
f 2/10/17 17/32/17 18/33/17
f 2/10/18 20/34/18 4/35/18
f 22/36/19 23/37/19 21/38/19
f 5/9/7 24/39/7 22/40/7
f 11/14/20 24/41/20 9/42/20
f 7/27/7 22/36/7 21/38/7
f 1/1/1 15/43/1 13/2/1
f 4/4/2 3/25/2 7/5/2
f 6/7/21 10/44/21 9/8/21
f 2/10/4 4/35/4 8/11/4
f 3/3/5 19/45/5 17/13/5
f 5/9/6 1/22/6 2/10/6
f 11/14/7 9/42/7 10/15/7
f 8/6/22 7/5/22 11/14/22
f 8/11/9 12/46/9 10/15/9
f 11/14/7 7/5/7 21/17/7
f 16/19/11 14/47/11 13/20/11
f 1/22/12 5/9/12 16/23/12
f 3/25/13 13/48/13 14/26/13
f 7/27/14 14/47/14 16/19/14
f 17/13/15 19/45/15 20/29/15
f 4/4/23 20/49/23 19/31/23
f 2/10/24 1/22/24 17/32/24
f 2/10/18 18/33/18 20/34/18
f 22/36/19 24/50/19 23/37/19
f 5/9/25 9/8/25 24/39/25
f 11/14/20 23/18/20 24/41/20
f 7/27/7 5/28/7 22/36/7
