# Blender v2.80 (sub 35) OBJ File: 'half-ass-objects.blend'
# www.blender.org
mtllib player.mtl
o enemy_Cube.002
v -0.668552 0.814774 -1.587386
v -0.668552 0.204737 -1.587386
v 0.668552 0.814774 -1.587386
v 0.668552 0.204737 -1.587386
v -0.668552 1.041932 0.482626
v -0.668552 0.204737 0.729100
v 0.668552 1.041932 0.482626
v 0.668552 0.204737 0.729100
v -0.668552 0.204737 1.326496
v 0.668552 0.204737 1.326496
v 0.668552 0.686808 1.132143
v -0.668552 0.686808 1.132143
v -0.668552 0.204737 1.736777
v 0.668552 0.204737 1.736777
v 0.668552 0.461265 1.823026
v -0.668552 0.461265 1.823026
v -0.668552 0.204737 -1.374877
v 0.668552 0.814774 -1.374877
v 0.668552 0.204737 -1.374877
v -0.668552 0.814774 -1.374877
v -0.668552 0.204737 -0.836434
v 0.668552 1.041932 -0.766423
v 0.668552 0.204737 -0.836434
v -0.668552 1.041932 -0.766422
v -0.398468 0.204737 0.729100
v 0.398468 0.204737 0.729100
v -0.398468 0.814774 -1.587386
v 0.398468 0.814774 -1.587386
v 0.398468 1.041932 0.482626
v -0.398468 1.041932 0.482626
v 0.398468 0.204737 -1.587386
v -0.398468 0.204737 -1.587386
v -0.398468 0.204737 1.326496
v 0.398468 0.204737 1.326496
v 0.398468 0.686808 1.132143
v -0.398468 0.686808 1.132143
v -0.398468 0.204737 1.736777
v 0.398468 0.204737 1.736777
v 0.398468 0.461265 1.823026
v -0.398468 0.461265 1.823026
v -0.398468 0.204737 -1.374877
v 0.398468 0.204737 -1.374877
v -0.398468 0.814774 -1.374877
v 0.398468 0.814774 -1.374877
v -0.398468 0.204737 -0.836434
v 0.398468 0.204737 -0.836434
v -0.398468 1.041932 -0.766422
v 0.398468 1.041932 -0.766423
v 0.398468 0.107521 0.729100
v 0.668552 0.107521 0.729100
v 0.398468 0.107521 1.326496
v 0.668552 0.107521 1.326496
v -0.668552 0.107521 1.326496
v -0.668552 0.107521 0.729100
v 0.668552 0.107521 -0.836434
v 0.668552 0.107521 -1.374877
v 0.398468 0.107521 -1.374877
v -0.668552 0.107521 -1.374877
v -0.668552 0.107521 -0.836434
v 0.398468 0.107521 -0.836434
v -0.398468 0.107521 0.729100
v -0.398468 0.107521 1.326496
v -0.398468 0.107521 -1.374877
v -0.398468 0.107521 -0.836434
v 0.398468 -0.021466 0.860692
v 0.668552 -0.021466 0.860692
v 0.398468 -0.021466 1.194904
v 0.668552 -0.021466 1.194904
v -0.668552 -0.021466 1.194904
v -0.668552 -0.021466 0.860692
v 0.668552 -0.021466 -0.954859
v 0.668552 -0.021466 -1.256453
v 0.398468 -0.021466 -1.256453
v -0.668552 -0.021466 -1.256453
v -0.668552 -0.021466 -0.954859
v 0.398468 -0.021466 -0.954859
v -0.398468 -0.021466 0.860692
v -0.398468 -0.021466 1.194904
v -0.398468 -0.021466 -1.256453
v -0.398468 -0.021466 -0.954859
v -0.668552 0.204737 -0.187019
v -0.668552 0.204737 0.027768
v 0.668552 1.041932 -0.201623
v 0.668552 1.041932 -0.030257
v 0.668552 0.204737 0.027768
v 0.668552 0.204737 -0.187019
v -0.668552 1.041932 -0.030257
v -0.668552 1.041932 -0.201623
v -0.398468 0.204737 -0.187019
v -0.398468 0.204737 0.027768
v 0.398468 0.204737 -0.187019
v 0.398468 0.204737 0.027768
v -0.398468 1.041932 -0.030257
v -0.398468 1.041932 -0.201623
v 0.398468 1.041932 -0.030257
v 0.398468 1.041932 -0.201623
v 0.668552 1.078642 -0.201623
v 0.668552 1.078642 -0.030257
v -0.668552 1.078642 -0.030257
v -0.668552 1.078642 -0.201623
v -0.398468 1.208623 -0.030257
v -0.398468 1.208623 -0.201623
v 0.398468 1.208623 -0.030257
v 0.398468 1.208623 -0.201623
vt 0.781098 0.108764
vt 0.725690 0.000000
vt 0.781098 0.000000
vt 0.679284 0.385144
vt 0.507531 0.287561
vt 0.679284 0.234684
vt 0.477939 0.731649
vt 0.497883 0.847164
vt 0.477939 0.847164
vt 0.055408 0.713146
vt 0.000000 0.667555
vt 0.055408 0.667555
vt 0.725690 0.469806
vt 0.850840 0.411864
vt 0.850840 0.469806
vt 0.328443 0.045590
vt 0.453594 0.000000
vt 0.453594 0.045590
vt 1.000000 0.258031
vt 0.944592 0.411864
vt 0.944591 0.258031
vt 1.000000 0.108764
vt 0.944591 0.108764
vt 0.453594 0.496965
vt 0.354696 0.583431
vt 0.281841 0.444088
vt 0.580386 0.148218
vt 0.679284 0.106523
vt 0.850841 0.469806
vt 0.904932 0.411864
vt 0.904932 0.469806
vt 0.626656 0.000000
vt 0.679284 0.018503
vt 0.453594 0.625127
vt 0.400967 0.731649
vt 0.000000 0.088019
vt 0.055408 0.000000
vt 0.055408 0.088019
vt 0.453594 0.161105
vt 0.701513 0.731649
vt 0.721457 0.789592
vt 0.701513 0.789592
vt 0.554133 0.731649
vt 0.679284 0.686059
vt 0.679284 0.731649
vt 0.000000 0.942058
vt 0.043095 1.000000
vt 0.000000 1.000000
vt 0.055408 0.412719
vt 0.000000 0.552041
vt 0.000000 0.412719
vt 0.453594 0.300426
vt 0.281841 0.176125
vt 0.554133 0.686059
vt 0.679284 0.570545
vt 0.159432 0.942058
vt 0.043095 0.942058
vt 0.159432 0.713146
vt 0.043095 0.771088
vt 0.043095 0.713146
vt 0.159432 0.771088
vt 0.274310 0.552041
vt 0.218902 0.412719
vt 0.274310 0.412719
vt 0.218902 0.552041
vt 0.000000 0.771088
vt 0.000000 0.713146
vt 0.320716 0.731649
vt 0.340660 0.859811
vt 0.320716 0.859811
vt 0.218902 0.667555
vt 0.055408 0.552041
vt 0.218902 0.088019
vt 0.274310 0.000000
vt 0.274310 0.088019
vt 0.218902 0.000000
vt 0.850841 0.698718
vt 0.904932 0.640776
vt 0.904932 0.698718
vt 0.850841 0.640776
vt 0.725690 0.258031
vt 0.725690 0.108764
vt 0.781098 0.258031
vt 0.725690 0.411864
vt 0.781098 0.411864
vt 0.725690 0.698718
vt 0.850840 0.640776
vt 0.850841 0.698718
vt 0.725690 0.640776
vt 0.274310 0.667555
vt 0.218902 0.713146
vt 0.473538 0.161105
vt 0.055408 0.216181
vt 0.218902 0.216181
vt 0.944591 0.000000
vt 1.000000 0.000000
vt 0.688199 0.796351
vt 0.716886 0.854294
vt 0.688199 0.854294
vt 0.473538 0.496965
vt 0.500000 0.596896
vt 0.473538 0.625127
vt 0.818457 0.814603
vt 0.844919 0.872545
vt 0.818457 0.872545
vt 0.699228 0.106523
vt 0.725690 0.206453
vt 0.699228 0.234684
vt 0.681569 0.731649
vt 0.701513 0.789592
vt 0.681569 0.789592
vt 0.320716 0.859811
vt 0.300772 0.731649
vt 0.320716 0.731649
vt 0.570752 0.796351
vt 0.590602 0.854294
vt 0.570752 0.854294
vt 0.699228 0.686059
vt 0.798513 0.814603
vt 0.798513 0.872545
vt 0.524345 0.731649
vt 0.544290 0.847164
vt 0.524345 0.847164
vt 0.798513 0.698718
vt 0.818364 0.756660
vt 0.798513 0.756660
vt 0.798513 0.756660
vt 0.818457 0.814603
vt 0.798513 0.814603
vt 0.668349 0.854294
vt 0.648498 0.796351
vt 0.668349 0.796351
vt 0.668349 0.796351
vt 0.668349 0.854294
vt 0.422531 0.759880
vt 0.367122 0.831580
vt 0.367122 0.759880
vt 0.626160 0.731649
vt 0.681568 0.796351
vt 0.626160 0.796351
vt 0.570752 0.731649
vt 0.626160 0.796351
vt 0.570752 0.796351
vt 0.422531 0.803349
vt 0.477939 0.731649
vt 0.477939 0.803349
vt 0.699228 0.570545
vt 0.725690 0.660653
vt 0.497883 0.731649
vt 0.524345 0.821757
vt 0.818457 0.756660
vt 0.844919 0.814603
vt 0.544290 0.731649
vt 0.570752 0.821757
vt 0.473538 0.045590
vt 0.500000 0.135699
vt 0.340660 0.731649
vt 0.367122 0.831580
vt 0.818364 0.698718
vt 0.847050 0.756660
vt 0.422531 0.731649
vt 0.367122 0.731649
vt 0.300772 0.859811
vt 0.274310 0.759880
vt 0.422531 0.831580
vt 0.477939 0.831580
vt 0.648498 0.854294
vt 0.619550 0.796351
vt 0.590602 0.796351
vt 0.619550 0.854294
vt 0.273968 0.942058
vt 0.798513 0.756660
vt 0.791017 0.698718
vt 0.798513 0.698718
vt 0.273968 0.713146
vt 0.939129 0.469806
vt 0.931598 0.411864
vt 0.939129 0.411864
vt 0.218902 0.366640
vt 0.055408 0.366640
vt 0.274310 0.366640
vt 0.274310 0.216181
vt 0.453594 0.346505
vt 0.281841 0.334057
vt 0.000000 0.216181
vt 0.000000 0.366640
vt 0.507531 0.555525
vt 0.679284 0.431223
vt 0.507531 0.397592
vt 0.159432 1.000000
vt 0.507531 0.434356
vt 0.500000 0.397592
vt 0.729725 0.927630
vt 0.764476 0.756660
vt 0.764476 0.927630
vt 0.725690 0.985572
vt 0.760441 0.985572
vt 0.729725 0.756660
vt 0.760441 0.698718
vt 0.798513 0.927630
vt 0.764476 0.756660
vt 0.791017 0.985572
vt 0.764476 0.927630
vt 0.939129 0.640776
vt 0.931598 0.698718
vt 0.904932 0.640776
vt 0.274310 0.297293
vt 0.281841 0.297293
vt 0.904932 0.469806
vt 0.000000 0.713146
vt 0.725690 0.411864
vt 0.328443 0.000000
vt 1.000000 0.411864
vt 0.850841 0.411864
vt 0.453594 0.713146
vt 0.000000 0.000000
vt 0.721457 0.731649
vt 0.274310 0.713146
vt 0.716886 0.796351
vt 0.500000 0.525196
vt 0.844919 0.814603
vt 0.725690 0.134753
vt 0.701513 0.731649
vt 0.422531 0.831580
vt 0.681568 0.731649
vt 0.626160 0.731649
vt 0.422531 0.731649
vt 0.725690 0.595951
vt 0.524345 0.757055
vt 0.844919 0.756660
vt 0.570751 0.757055
vt 0.500000 0.070996
vt 0.367122 0.759880
vt 0.847050 0.698718
vt 0.274310 0.831580
vt 0.619550 0.854294
vt 0.619550 0.796351
vt 0.273968 0.771088
vt 0.273968 1.000000
vt 0.500000 0.434356
vt 0.725690 0.698718
vt 0.798513 0.985572
vt 0.939129 0.698718
vt 0.274310 0.334057
vn 0.0000 1.0000 0.0000
vn 1.0000 0.0000 -0.0000
vn 0.0000 -1.0000 0.0000
vn -0.0000 0.0000 -1.0000
vn -1.0000 0.0000 0.0000
vn 0.0000 0.9506 0.3103
vn 0.0000 0.8774 0.4797
vn 0.0000 -0.3187 0.9479
vn 0.0000 0.9368 -0.3498
vn 0.0000 -0.6763 0.7366
vn 0.0000 -0.6763 -0.7366
vn 0.0000 0.0000 1.0000
vn 0.0000 -0.7141 -0.7000
vn 0.0000 -0.7141 0.7000
vn -0.4337 0.9011 0.0000
vn 0.4337 0.9011 0.0000
usemtl Material
s off
f 29/1/1 84/2/1 95/3/1
f 85/4/2 7/5/2 8/6/2
f 45/7/2 63/8/2 41/9/2
f 31/10/3 19/11/3 42/12/3
f 28/13/4 4/14/4 31/15/4
f 20/16/5 2/17/5 17/18/5
f 12/19/6 40/20/6 36/21/6
f 5/22/7 36/21/7 30/23/7
f 6/24/5 12/25/5 5/26/5
f 8/6/2 11/27/2 10/28/2
f 40/29/8 13/30/8 37/31/8
f 10/28/2 15/32/2 14/33/2
f 9/34/5 16/35/5 12/25/5
f 10/36/3 38/37/3 34/38/3
f 21/39/5 20/16/5 17/18/5
f 25/40/4 54/41/4 6/42/4
f 3/43/2 19/44/2 4/45/2
f 28/46/1 18/47/1 3/48/1
f 91/49/3 23/50/3 86/51/3
f 81/52/5 24/53/5 21/39/5
f 18/54/2 23/55/2 19/44/2
f 48/56/9 18/47/9 44/57/9
f 24/58/9 43/59/9 20/60/9
f 47/61/9 44/57/9 43/59/9
f 21/62/3 89/63/3 81/64/3
f 45/65/3 91/49/3 89/63/3
f 20/60/1 27/66/1 1/67/1
f 43/59/1 28/46/1 27/66/1
f 33/68/2 61/69/2 25/70/2
f 41/71/3 46/72/3 45/65/3
f 33/73/3 13/74/3 9/75/3
f 34/38/3 37/76/3 33/73/3
f 15/77/8 38/78/8 14/79/8
f 39/80/8 37/31/8 38/78/8
f 29/1/7 11/81/7 7/82/7
f 29/1/7 36/21/7 35/83/7
f 35/83/6 15/84/6 11/81/6
f 36/21/6 39/85/6 35/83/6
f 1/86/4 32/87/4 2/88/4
f 27/89/4 31/15/4 32/87/4
f 17/90/3 32/91/3 41/71/3
f 32/91/3 42/12/3 41/71/3
f 17/18/5 59/92/5 21/39/5
f 26/93/3 33/73/3 25/94/3
f 5/22/1 93/95/1 87/96/1
f 30/23/1 95/3/1 93/95/1
f 59/97/10 80/98/10 64/99/10
f 54/100/5 69/101/5 53/102/5
f 63/103/11 74/104/11 58/105/11
f 52/106/2 66/107/2 50/108/2
f 8/109/4 49/110/4 26/111/4
f 26/112/5 51/113/5 34/114/5
f 9/115/12 62/116/12 33/117/12
f 23/55/2 56/118/2 19/44/2
f 41/119/4 58/105/4 17/120/4
f 42/121/5 60/122/5 46/123/5
f 10/28/2 50/108/2 8/6/2
f 6/24/5 53/102/5 9/34/5
f 46/124/12 55/125/12 23/126/12
f 19/127/4 57/128/4 42/129/4
f 34/130/12 52/131/12 10/132/12
f 21/133/12 64/99/12 45/134/12
f 66/135/3 67/136/3 65/137/3
f 73/138/3 71/139/3 76/140/3
f 74/141/3 80/142/3 75/143/3
f 77/144/3 69/145/3 70/146/3
f 55/147/2 72/148/2 56/118/2
f 64/149/2 79/150/2 63/8/2
f 56/151/11 73/152/11 57/128/11
f 57/153/5 76/154/5 60/122/5
f 58/155/5 75/156/5 59/92/5
f 62/157/2 77/158/2 61/69/2
f 60/159/10 71/160/10 55/125/10
f 50/161/13 65/137/13 49/162/13
f 49/163/5 67/164/5 51/113/5
f 61/165/13 70/146/13 54/166/13
f 51/167/14 68/168/14 52/131/14
f 53/169/14 78/170/14 62/116/14
f 47/61/1 96/171/1 48/56/1
f 93/172/12 99/173/12 87/174/12
f 88/175/1 47/61/1 24/58/1
f 96/176/4 97/177/4 83/178/4
f 90/179/3 26/93/3 25/94/3
f 89/63/3 92/180/3 90/179/3
f 82/181/3 25/94/3 6/182/3
f 82/181/3 89/63/3 90/179/3
f 5/26/5 82/183/5 6/24/5
f 87/184/5 81/52/5 82/183/5
f 92/180/3 8/185/3 26/93/3
f 92/180/3 86/51/3 85/186/3
f 22/187/2 86/188/2 23/55/2
f 86/188/2 84/189/2 85/4/2
f 96/171/1 22/190/1 48/56/1
f 83/191/2 98/192/2 84/189/2
f 101/193/1 104/194/1 102/195/1
f 99/196/15 102/195/15 100/197/15
f 103/198/16 97/199/16 104/194/16
f 95/200/12 101/201/12 93/172/12
f 95/200/12 98/202/12 103/203/12
f 94/204/4 100/205/4 102/206/4
f 87/184/5 100/207/5 88/208/5
f 94/204/4 104/209/4 96/176/4
f 29/1/1 7/82/1 84/2/1
f 85/4/2 84/189/2 7/5/2
f 45/7/2 64/149/2 63/8/2
f 31/10/3 4/210/3 19/11/3
f 28/13/4 3/211/4 4/14/4
f 20/16/5 1/212/5 2/17/5
f 12/19/6 16/213/6 40/20/6
f 5/22/7 12/19/7 36/21/7
f 6/24/5 9/34/5 12/25/5
f 8/6/2 7/5/2 11/27/2
f 40/29/8 16/214/8 13/30/8
f 10/28/2 11/27/2 15/32/2
f 9/34/5 13/215/5 16/35/5
f 10/36/3 14/216/3 38/37/3
f 21/39/5 24/53/5 20/16/5
f 25/40/4 61/217/4 54/41/4
f 3/43/2 18/54/2 19/44/2
f 28/46/1 44/57/1 18/47/1
f 91/49/3 46/72/3 23/50/3
f 81/52/5 88/208/5 24/53/5
f 18/54/2 22/187/2 23/55/2
f 48/56/9 22/190/9 18/47/9
f 24/58/9 47/61/9 43/59/9
f 47/61/9 48/56/9 44/57/9
f 21/62/3 45/65/3 89/63/3
f 45/65/3 46/72/3 91/49/3
f 20/60/1 43/59/1 27/66/1
f 43/59/1 44/57/1 28/46/1
f 33/68/2 62/157/2 61/69/2
f 41/71/3 42/12/3 46/72/3
f 33/73/3 37/76/3 13/74/3
f 34/38/3 38/37/3 37/76/3
f 15/77/8 39/80/8 38/78/8
f 39/80/8 40/29/8 37/31/8
f 29/1/7 35/83/7 11/81/7
f 29/1/7 30/23/7 36/21/7
f 35/83/6 39/85/6 15/84/6
f 36/21/6 40/20/6 39/85/6
f 1/86/4 27/89/4 32/87/4
f 27/89/4 28/13/4 31/15/4
f 17/90/3 2/218/3 32/91/3
f 32/91/3 31/10/3 42/12/3
f 17/18/5 58/155/5 59/92/5
f 26/93/3 34/38/3 33/73/3
f 5/22/1 30/23/1 93/95/1
f 30/23/1 29/1/1 95/3/1
f 59/97/10 75/219/10 80/98/10
f 54/100/5 70/220/5 69/101/5
f 63/103/11 79/221/11 74/104/11
f 52/106/2 68/222/2 66/107/2
f 8/109/4 50/223/4 49/110/4
f 26/112/5 49/163/5 51/113/5
f 9/115/12 53/169/12 62/116/12
f 23/55/2 55/147/2 56/118/2
f 41/119/4 63/103/4 58/105/4
f 42/121/5 57/153/5 60/122/5
f 10/28/2 52/106/2 50/108/2
f 6/24/5 54/100/5 53/102/5
f 46/124/12 60/159/12 55/125/12
f 19/127/4 56/151/4 57/128/4
f 34/130/12 51/167/12 52/131/12
f 21/133/12 59/97/12 64/99/12
f 66/135/3 68/224/3 67/136/3
f 73/138/3 72/225/3 71/139/3
f 74/141/3 79/226/3 80/142/3
f 77/144/3 78/227/3 69/145/3
f 55/147/2 71/228/2 72/148/2
f 64/149/2 80/229/2 79/150/2
f 56/151/11 72/230/11 73/152/11
f 57/153/5 73/231/5 76/154/5
f 58/155/5 74/232/5 75/156/5
f 62/157/2 78/233/2 77/158/2
f 60/159/10 76/234/10 71/160/10
f 50/161/13 66/135/13 65/137/13
f 49/163/5 65/235/5 67/164/5
f 61/165/13 77/144/13 70/146/13
f 51/167/14 67/236/14 68/168/14
f 53/169/14 69/237/14 78/170/14
f 47/61/1 94/238/1 96/171/1
f 93/172/12 101/201/12 99/173/12
f 88/175/1 94/238/1 47/61/1
f 96/176/4 104/209/4 97/177/4
f 90/179/3 92/180/3 26/93/3
f 89/63/3 91/49/3 92/180/3
f 82/181/3 90/179/3 25/94/3
f 82/181/3 81/64/3 89/63/3
f 5/26/5 87/184/5 82/183/5
f 87/184/5 88/208/5 81/52/5
f 92/180/3 85/186/3 8/185/3
f 92/180/3 91/49/3 86/51/3
f 22/187/2 83/191/2 86/188/2
f 86/188/2 83/191/2 84/189/2
f 96/171/1 83/239/1 22/190/1
f 83/191/2 97/240/2 98/192/2
f 101/193/1 103/198/1 104/194/1
f 99/196/15 101/193/15 102/195/15
f 103/198/16 98/241/16 97/199/16
f 95/200/12 103/203/12 101/201/12
f 95/200/12 84/242/12 98/202/12
f 94/204/4 88/243/4 100/205/4
f 87/184/5 99/244/5 100/207/5
f 94/204/4 102/206/4 104/209/4
