# Blender v2.80 (sub 35) OBJ File: 'half-ass-objects.blend'
# www.blender.org
mtllib road.mtl
o road_Cube.001
v -1.000000 -0.342223 0.000000
v -1.000000 0.000000 0.000000
v 1.000000 -0.342223 0.000000
v 1.000000 0.000000 0.000000
v -1.000000 -0.342223 6.000000
v -1.000000 0.000000 6.000000
v 1.000000 -0.342223 6.000000
v 1.000000 0.000000 6.000000
v 0.688881 -0.753066 0.000000
v -0.688881 -0.753066 0.000000
v 0.688881 -0.753066 6.000000
v -0.688881 -0.753066 6.000000
v 0.688881 -100.000000 0.000000
v -0.688881 -100.000000 0.000000
v 0.688881 -100.000000 6.000000
v -0.688881 -100.000000 6.000000
vt 0.872568 0.666667
vt 0.928885 0.333333
vt 0.928885 0.666667
vt 0.742864 1.000000
vt 0.787761 0.000000
vt 0.787760 1.000000
vt 0.872568 0.333333
vt 0.928885 0.000000
vt 0.928885 0.333333
vt 0.742864 0.000000
vt 0.697968 1.000000
vt 0.697967 0.000000
vt 0.613160 0.000000
vt 0.613159 1.000000
vt 0.284035 0.000000
vt 0.613160 0.000000
vt 0.216166 1.000000
vt 0.238009 0.000000
vt 0.238010 1.000000
vt 0.872568 1.000000
vt 0.996495 0.614813
vt 0.996495 0.281480
vt 0.964055 0.762671
vt 0.904055 0.748894
vt 0.904055 0.762671
vt 0.216165 0.000000
vt 0.194322 1.000000
vt 0.194322 0.000000
vt 0.099195 0.000000
vt 0.004070 1.000000
vt 0.004069 0.000000
vt 0.194321 0.000000
vt 0.099196 1.000000
vt 0.099196 0.000000
vt 0.872568 0.333333
vt 0.742864 0.000000
vt 0.872568 0.000000
vt 0.742864 1.000000
vt 0.613160 1.000000
vt 0.284035 1.000000
vt 0.216166 0.000000
vt 0.872568 0.000000
vt 0.996494 0.385187
vt 0.996495 0.051853
vt 0.964055 0.748894
vt 0.216166 1.000000
vt 0.099196 1.000000
vt 0.194322 1.000000
vn 0.0000 0.0000 -1.0000
vn 1.0000 0.0000 0.0000
vn 0.0000 0.0000 1.0000
vn -1.0000 0.0000 0.0000
vn -0.7972 -0.6037 0.0000
vn 0.0000 1.0000 0.0000
vn 0.7972 -0.6037 0.0000
vn 0.0000 -1.0000 0.0000
usemtl None
s off
f 2/1/1 3/2/1 1/3/1
f 4/4/2 7/5/2 3/6/2
f 8/7/3 5/8/3 7/9/3
f 6/10/4 1/11/4 5/12/4
f 1/11/5 12/13/5 5/12/5
f 4/14/6 6/15/6 8/16/6
f 12/17/3 15/18/3 11/19/3
f 7/5/7 9/20/7 3/6/7
f 3/2/1 10/21/1 1/3/1
f 5/8/3 11/22/3 7/9/3
f 15/23/8 14/24/8 13/25/8
f 9/26/1 14/27/1 10/28/1
f 10/29/4 16/30/4 12/31/4
f 11/32/2 13/33/2 9/34/2
f 2/1/1 4/35/1 3/2/1
f 4/4/2 8/36/2 7/5/2
f 8/7/3 6/37/3 5/8/3
f 6/10/4 2/38/4 1/11/4
f 1/11/5 10/39/5 12/13/5
f 4/14/6 2/40/6 6/15/6
f 12/17/3 16/41/3 15/18/3
f 7/5/7 11/42/7 9/20/7
f 3/2/1 9/43/1 10/21/1
f 5/8/3 12/44/3 11/22/3
f 15/23/8 16/45/8 14/24/8
f 9/26/1 13/46/1 14/27/1
f 10/29/4 14/47/4 16/30/4
f 11/32/2 15/48/2 13/33/2
