# Blender v2.79 (sub 0) OBJ File: 'untitled.blend'
# www.blender.org
o Cube
v -15.890024 15.890032 -15.890031
v -15.890024 15.890037 15.890026
v 15.890036 15.890026 15.890023
v 15.890028 15.890021 -15.890038
v -15.890041 -15.890026 -15.890018
v -15.890023 -15.890021 15.890041
v 15.890030 -15.890032 15.890026
v 15.890023 -15.890037 -15.890026
vt 0.499499 0.999086
vt 0.250867 0.665469
vt 0.250562 0.999990
vt 0.250562 0.335506
vt 0.499499 0.003417
vt 0.250562 0.004321
vt 0.000087 0.335506
vt 0.000392 0.665469
vt 0.499804 0.664565
vt 0.749957 0.335505
vt 0.499499 0.334601
vt 1.000219 0.665469
vt 0.999913 0.335505
vt 0.750262 0.665469
vn -0.0000 -1.0000 0.0000
vn 0.0000 1.0000 -0.0000
vn 1.0000 -0.0000 0.0000
vn -0.0000 -0.0000 -1.0000
vn -1.0000 0.0000 0.0000
vn 0.0000 0.0000 1.0000
s off
f 4/1/1 2/2/1 1/3/1
f 6/4/2 8/5/2 5/6/2
f 2/2/3 5/7/3 1/8/3
f 3/9/4 6/4/4 2/2/4
f 3/9/5 8/10/5 7/11/5
f 8/10/6 1/12/6 5/13/6
f 4/1/1 3/9/1 2/2/1
f 6/4/2 7/11/2 8/5/2
f 2/2/3 6/4/3 5/7/3
f 3/9/4 7/11/4 6/4/4
f 3/9/5 4/14/5 8/10/5
f 8/10/6 4/14/6 1/12/6
