# Blender v2.80 (sub 35) OBJ File: 'half-ass-objects.blend'
# www.blender.org
mtllib turn_left.mtl
o turn_left_Cube.003
v -1.000000 -0.342223 0.000000
v -1.000000 0.000000 0.000000
v 1.000000 -0.342223 0.000000
v 1.000000 0.000000 0.000000
v -1.000000 -0.342223 6.000000
v -1.000000 0.000000 6.000000
v 1.000000 -0.342223 6.000000
v 1.000000 0.000000 6.000000
v 0.688881 -0.753066 0.000001
v -0.688881 -0.753066 0.000000
v 1.000000 -0.753066 5.684518
v -0.688881 -0.753066 5.684517
v 0.688881 -100.000000 0.000001
v -0.688881 -100.000000 0.000000
v 1.000000 -100.000000 5.684518
v -0.688881 -100.000000 5.684517
v 1.000000 -0.342223 0.397241
v 1.000000 0.000000 0.397241
v -1.000000 -0.342223 0.397241
v -1.000000 0.000000 0.397241
v 1.000000 -0.753066 0.397242
v -0.688881 -0.753066 0.397241
v 1.000000 -100.000000 0.397242
v -0.688881 -100.000000 0.397241
vt 0.872568 0.666667
vt 0.928885 0.333333
vt 0.928885 0.666667
vt 0.742864 1.000000
vt 0.787761 0.000000
vt 0.787760 1.000000
vt 0.872568 0.333333
vt 0.928885 0.000000
vt 0.928885 0.333333
vt 0.742864 1.000000
vt 0.697968 1.000000
vt 0.697968 1.000000
vt 0.613160 1.000000
vt 0.613159 1.000000
vt 0.284035 1.000000
vt 0.613159 1.000000
vt 0.216166 1.000000
vt 0.238009 0.000000
vt 0.238010 1.000000
vt 0.872568 0.000000
vt 0.872568 1.000000
vt 0.996495 0.614813
vt 0.996495 0.051853
vt 0.996495 0.281480
vt 0.904055 0.762671
vt 0.964055 0.748894
vt 0.904055 0.748894
vt 0.216165 0.000000
vt 0.194322 1.000000
vt 0.194322 0.000000
vt 0.099195 0.000000
vt 0.099196 1.000000
vt 0.099195 0.000000
vt 0.194321 0.000000
vt 0.099196 1.000000
vt 0.099196 0.000000
vt 0.099196 1.000000
vt 0.099196 0.000000
vt 0.004070 1.000000
vt 0.004069 0.000000
vt 0.904055 0.762671
vt 0.904055 0.748894
vt 0.787760 1.000000
vt 0.872568 1.000000
vt 0.284035 0.000000
vt 0.613160 0.000000
vt 0.613160 0.000000
vt 0.697967 0.000000
vt 0.742864 0.000000
vt 0.742864 1.000000
vt 0.872568 0.333333
vt 0.742864 0.000000
vt 0.872568 0.000000
vt 0.742864 1.000000
vt 0.613160 1.000000
vt 0.284035 1.000000
vt 0.216166 0.000000
vt 0.996494 0.385187
vt 0.964055 0.762671
vt 0.216166 1.000000
vt 0.099196 1.000000
vt 0.194322 1.000000
vn 0.0000 0.0000 -1.0000
vn 1.0000 0.0000 0.0000
vn 0.0000 0.0000 1.0000
vn -1.0000 0.0000 0.0000
vn -0.7972 -0.6037 0.0000
vn 0.0000 1.0000 0.0000
vn -0.0000 -0.6090 0.7931
vn 0.0000 -1.0000 0.0000
vn 0.7873 0.0000 -0.6166
vn 0.6762 -0.5121 -0.5296
usemtl None
s off
f 2/1/1 3/2/1 1/3/1
f 18/4/2 7/5/2 17/6/2
f 8/7/3 5/8/3 7/9/3
f 20/10/4 1/11/4 19/12/4
f 1/11/5 22/13/5 19/12/5
f 4/14/6 20/15/6 18/16/6
f 12/17/3 15/18/3 11/19/3
f 17/6/2 11/20/2 21/21/2
f 3/2/1 10/22/1 1/3/1
f 7/9/7 12/23/7 11/24/7
f 23/25/8 16/26/8 24/27/8
f 9/28/1 14/29/1 10/30/1
f 10/31/4 24/32/4 22/33/4
f 11/34/2 23/35/2 21/36/2
f 21/36/9 13/37/9 9/38/9
f 22/33/4 16/39/4 12/40/4
f 13/41/8 24/27/8 14/42/8
f 3/43/10 21/21/10 9/44/10
f 18/16/6 6/45/6 8/46/6
f 19/12/5 12/47/5 5/48/5
f 6/49/4 19/12/4 5/48/4
f 4/50/2 17/6/2 3/43/2
f 3/43/2 17/6/2 21/21/2
f 2/1/1 4/51/1 3/2/1
f 18/4/2 8/52/2 7/5/2
f 8/7/3 6/53/3 5/8/3
f 20/10/4 2/54/4 1/11/4
f 1/11/5 10/55/5 22/13/5
f 4/14/6 2/56/6 20/15/6
f 12/17/3 16/57/3 15/18/3
f 17/6/2 7/5/2 11/20/2
f 3/2/1 9/58/1 10/22/1
f 7/9/7 5/8/7 12/23/7
f 23/25/8 15/59/8 16/26/8
f 9/28/1 13/60/1 14/29/1
f 10/31/4 14/61/4 24/32/4
f 11/34/2 15/62/2 23/35/2
f 21/36/9 23/35/9 13/37/9
f 22/33/4 24/32/4 16/39/4
f 13/41/8 23/25/8 24/27/8
f 18/16/6 20/15/6 6/45/6
f 19/12/5 22/13/5 12/47/5
f 6/49/4 20/10/4 19/12/4
f 4/50/2 18/4/2 17/6/2
