# Blender v2.80 (sub 35) OBJ File: 'road.blend'
# www.blender.org
mtllib turn_middle.mtl
o TurnMiddle_Mesh1_Model.002
v -1.017962 -0.022748 -0.006598
v -1.017962 -0.013942 -0.006598
v -1.017962 -0.022749 5.993402
v 0.997938 -0.022749 5.993402
v 1.145786 -0.022749 5.993402
v 0.997603 -0.022748 -0.006598
v -1.017962 -0.013943 5.993402
v 0.997603 -0.013942 -0.006598
v 0.997938 -0.013943 5.993402
v 1.146426 0.056506 -0.006598
v 1.145786 0.056505 5.993402
v 1.146426 0.056505 5.993402
vt 0.000080 0.990219
vt 0.555844 0.000080
vt 0.000080 0.000080
vt 81.089302 -0.393701
vt 5.465450 -0.047008
vt 81.089302 -0.047008
vt -81.102097 -0.393701
vt -81.089302 216.378006
vt -81.102097 81.647202
vt 0.000158 0.999920
vt 0.555936 0.990219
vt 0.562833 0.381643
vt 0.556306 0.000134
vt 0.556174 0.381698
vt 5.465450 -0.393701
vt 0.556015 0.999920
vt 0.562965 0.000080
vn 0.0000 1.0000 0.0000
vn 0.7071 0.0000 -0.7071
vn -0.7071 0.0000 -0.7071
vn 0.7071 -0.0000 0.7071
vn -0.7071 0.0000 0.7071
usemtl Material.009
s 1
f 7/1/1 8/2/1 2/3/1
f 6/4/2 2/5/3 8/6/2
f 4/7/4 8/8/2 9/9/4
f 3/10/5 9/11/4 7/1/5
f 7/12/5 1/13/3 3/14/5
f 7/1/1 9/11/1 8/2/1
f 6/4/2 1/15/3 2/5/3
f 4/7/4 6/4/2 8/8/2
f 3/10/5 4/16/4 9/11/4
f 7/12/5 2/17/3 1/13/3
