# Blender v2.79 (sub 0) OBJ File: 'cubemap_sample.blend'
# www.blender.org
o Cube
v 1.000000 -1.000000 -1.000000
v 1.000000 -1.000000 1.000000
v -1.000000 -1.000000 1.000000
v -1.000000 -1.000000 -1.000000
v 1.000000 1.000000 -0.999999
v 0.999999 1.000000 1.000001
v -1.000000 1.000000 1.000000
v -1.000000 1.000000 -1.000000
vt 0.500000 0.334226
vt 0.250043 0.000043
vt 0.500000 0.000043
vt 0.250043 0.999635
vt 0.500000 0.665927
vt 0.500000 0.999635
vt 0.749957 0.665927
vt 0.749957 0.337513
vt 0.250043 0.337513
vt 0.000087 0.665927
vt 0.000087 0.337513
vt 0.999913 0.665927
vt 0.250043 0.665927
vt 0.999913 0.337513
vn 0.0000 -1.0000 0.0000
vn 0.0000 1.0000 0.0000
vn 1.0000 -0.0000 0.0000
vn 0.0000 -0.0000 1.0000
vn -1.0000 -0.0000 -0.0000
vn 0.0000 0.0000 -1.0000
s off
f 2/1/1 4/2/1 1/3/1
f 8/4/2 6/5/2 5/6/2
f 5/7/3 2/1/3 1/8/3
f 6/5/4 3/9/4 2/1/4
f 3/9/5 8/10/5 4/11/5
f 1/8/6 8/12/6 5/7/6
f 2/1/1 3/9/1 4/2/1
f 8/4/2 7/13/2 6/5/2
f 5/7/3 6/5/3 2/1/3
f 6/5/4 7/13/4 3/9/4
f 3/9/5 7/13/5 8/10/5
f 1/8/6 4/14/6 8/12/6
